#!OML:ASF H:\Pregnant\Project 1\Capture day 1\Session 1\femalepreg.ASF
:FULLY-SPECIFIED
:DEGREES
1733
root 4.83811 8.1642 17.1907 -115.389 7.09617 -172.693
lowerback 4.19133 3.83466 -7.42028
upperback -6.31224 5.06597 2.66966
thorax -10.0406 3.27442 6.33672
lowerneck -57.9067 5.65114 4.28186
upperneck 2.73163 10.806 -6.5902
head 8.13383 6.28092 -0.978101
rclavicle -8.54774e-014 -4.57205e-014
rhumerus 15.243 31.4183 -85.4403
rradius 23.2794
rwrist 25.7735
rhand -52.3377 361.168
rfingers 7.12502
rthumb -24.8312 -27.2392
lclavicle -8.54774e-014 -4.57205e-014
lhumerus 16.7941 -33.1933 76.279
lradius 24.6539
lwrist 14.8954
lhand -49.7597 -57.0477
lfingers 7.12502
lthumb -22.3584 -28.3215
rfemur -165.303 17.5448 33.8864
rtibia 97.7616
rfoot 8.48092 9.93455
rtoes 4.98027
lfemur 7.90647 -12.2561 -22.4167
ltibia 1.59028e-014
lfoot -24.6636 -6.81137
ltoes -8.25458
1734
root 4.83705 8.16939 17.1933 -115.401 7.07822 -172.719
lowerback 4.18848 3.82075 -7.45167
upperback -6.26753 5.04182 2.68074
thorax -9.98908 3.26038 6.37222
lowerneck -57.7348 5.65989 4.32345
upperneck 2.64463 10.7814 -6.59716
head 8.09265 6.27184 -0.993259
rclavicle -3.97569e-016 -7.95139e-016
rhumerus 15.3771 31.4121 -85.3627
rradius 23.2796
rwrist 25.8122
rhand -52.3179 361.157
rfingers 7.12502
rthumb -24.8122 -27.2528
lclavicle -3.97569e-016 -7.95139e-016
lhumerus 16.9225 -33.1602 76.2345
lradius 24.64
lwrist 14.9057
lhand -49.773 -57.061
lfingers 7.12502
lthumb -22.3712 -28.3363
rfemur -165.268 17.4994 33.8777
rtibia 97.7222
rfoot 8.47418 9.92904
rtoes 4.92114
lfemur 7.89854 -12.289 -22.4
ltibia 1.59028e-014
lfoot -24.6432 -7.02234
ltoes -7.13456
1735
root 4.83622 8.17604 17.1955 -115.418 7.05801 -172.747
lowerback 4.19122 3.80759 -7.4851
upperback -6.22034 5.01788 2.69202
thorax -9.93845 3.24637 6.4088
lowerneck -57.5643 5.65002 4.34854
upperneck 2.56481 10.7404 -6.58379
head 8.05149 6.25704 -1.00125
rclavicle -3.49861e-014 2.94201e-014
rhumerus 15.5105 31.4006 -85.2842
rradius 23.2813
rwrist 25.8548
rhand -52.264 361.102
rfingers 7.12502
rthumb -24.7605 -27.3155
lclavicle -3.49861e-014 2.94201e-014
lhumerus 17.0465 -33.1183 76.1979
lradius 24.6312
lwrist 14.9175
lhand -49.7858 -57.1003
lfingers 7.12502
lthumb -22.3835 -28.3771
rfemur -165.218 17.45 33.8774
rtibia 97.6813
rfoot 8.46019 9.92809
rtoes 4.85989
lfemur 7.89344 -12.3247 -22.3768
ltibia 2.54444e-014
lfoot -24.6111 -7.27895
ltoes -5.7959
1736
root 4.83557 8.18348 17.1977 -115.438 7.0384 -172.779
lowerback 4.19792 3.79528 -7.52438
upperback -6.17163 4.99418 2.70346
thorax -9.8892 3.23276 6.44863
lowerneck -57.4042 5.62556 4.35957
upperneck 2.50531 10.685 -6.55334
head 8.01629 6.23535 -1.0031
rclavicle -2.74323e-014 2.46493e-014
rhumerus 15.6483 31.405 -85.1912
rradius 23.2849
rwrist 25.8806
rhand -52.2376 361.07
rfingers 7.12502
rthumb -24.7353 -27.3512
lclavicle -2.74323e-014 2.46493e-014
lhumerus 17.1648 -33.0627 76.1736
lradius 24.6285
lwrist 14.9244
lhand -49.7957 -57.1512
lfingers 7.12502
lthumb -22.393 -28.4291
rfemur -165.162 17.3969 33.8793
rtibia 97.6389
rfoot 8.44496 9.92895
rtoes 4.81022
lfemur 7.88882 -12.3635 -22.3526
ltibia 2.54444e-014
lfoot -24.5787 -7.53651
ltoes -4.45959
1737
root 4.83493 8.19072 17.2004 -115.459 7.0209 -172.814
lowerback 4.20545 3.78309 -7.56991
upperback -6.12151 4.96993 2.71489
thorax -9.83948 3.21916 6.49207
lowerneck -57.2489 5.58836 4.35404
upperneck 2.46631 10.6176 -6.50262
head 7.98667 6.20805 -0.996738
rclavicle 7.91163e-014 8.46823e-014
rhumerus 15.7899 31.4245 -85.086
rradius 23.2932
rwrist 25.8858
rhand -52.2188 361.017
rfingers 7.12502
rthumb -24.7172 -27.4061
lclavicle 7.91163e-014 8.46823e-014
lhumerus 17.2827 -32.9966 76.1551
lradius 24.6288
lwrist 14.9299
lhand -49.8022 -57.2015
lfingers 7.12502
lthumb -22.3993 -28.4802
rfemur -165.11 17.342 33.8793
rtibia 97.5956
rfoot 8.43361 9.93162
rtoes 4.76374
lfemur 7.88204 -12.405 -22.3331
ltibia 0
lfoot -24.5565 -7.75592
ltoes -3.31786
